<svg width="35" height="35" viewBox="0 0 35 35" fill="none" xmlns="http://www.w3.org/2000/svg">
<rect x="1.30542" y="1.37085" width="32.6586" height="32.6586" rx="16.3293" stroke="#FCFCFC" stroke-width="0.8374"/>
<path d="M18.497 9.3272C19.1081 9.32486 19.7192 9.331 20.3301 9.34563L20.4926 9.35149C20.6801 9.35819 20.8652 9.36656 21.0888 9.37661C21.9798 9.41848 22.5877 9.55916 23.1212 9.766C23.6738 9.9787 24.1394 10.2668 24.605 10.7324C25.0307 11.1507 25.3602 11.6568 25.5706 12.2154C25.7774 12.7488 25.9181 13.3576 25.9599 14.2486C25.97 14.4713 25.9784 14.6572 25.9851 14.8448L25.9901 15.0073C26.005 15.6179 26.0114 16.2287 26.0094 16.8395L26.0102 17.4642V18.5612C26.0123 19.1723 26.0058 19.7834 25.9909 20.3943L25.9859 20.5567C25.9792 20.7443 25.9708 20.9294 25.9608 21.153C25.9189 22.044 25.7766 22.6519 25.5706 23.1853C25.3609 23.7445 25.0314 24.251 24.605 24.6692C24.1863 25.0949 23.68 25.4243 23.1212 25.6347C22.5877 25.8416 21.9798 25.9822 21.0888 26.0241C20.8652 26.0342 20.6801 26.0425 20.4926 26.0492L20.3301 26.0543C19.7192 26.0691 19.1081 26.0756 18.497 26.0735L17.8723 26.0744H16.7762C16.1651 26.0764 15.554 26.07 14.9431 26.0551L14.7807 26.0501C14.5819 26.0429 14.3831 26.0345 14.1844 26.0249C13.2934 25.9831 12.6855 25.8407 12.1512 25.6347C11.5924 25.4248 11.0863 25.0953 10.6682 24.6692C10.242 24.2507 9.91221 23.7443 9.70184 23.1853C9.495 22.6519 9.35432 22.044 9.31245 21.153C9.30312 20.9543 9.29475 20.7555 9.28732 20.5567L9.28314 20.3943C9.2677 19.7834 9.26072 19.1723 9.2622 18.5612V16.8395C9.25986 16.2287 9.26601 15.6179 9.28062 15.0073L9.28649 14.8448C9.29319 14.6572 9.30156 14.4713 9.31161 14.2486C9.35348 13.3568 9.49416 12.7497 9.701 12.2154C9.9115 11.6565 10.2419 11.1506 10.669 10.7332C11.0868 10.3068 11.5927 9.97667 12.1512 9.766C12.6855 9.55916 13.2926 9.41848 14.1844 9.37661L14.7807 9.35149L14.9431 9.3473C15.5537 9.33187 16.1645 9.32489 16.7754 9.32636L18.497 9.3272ZM17.6362 13.5142C17.0814 13.5064 16.5306 13.6088 16.0158 13.8157C15.501 14.0226 15.0324 14.3297 14.6373 14.7193C14.2423 15.1088 13.9285 15.573 13.7144 16.0848C13.5003 16.5967 13.39 17.146 13.39 17.7008C13.39 18.2556 13.5003 18.8049 13.7144 19.3167C13.9285 19.8286 14.2423 20.2928 14.6373 20.6823C15.0324 21.0718 15.501 21.379 16.0158 21.5858C16.5306 21.7927 17.0814 21.8952 17.6362 21.8874C18.7467 21.8874 19.8116 21.4462 20.5969 20.661C21.3821 19.8758 21.8232 18.8108 21.8232 17.7004C21.8232 16.5899 21.3821 15.5249 20.5969 14.7397C19.8116 13.9545 18.7467 13.5142 17.6362 13.5142ZM17.6362 15.189C17.9699 15.1828 18.3015 15.2433 18.6116 15.3667C18.9217 15.4901 19.2041 15.6741 19.4423 15.9079C19.6805 16.1417 19.8697 16.4207 19.9989 16.7284C20.1281 17.0362 20.1946 17.3666 20.1947 17.7004C20.1947 18.0341 20.1283 18.3645 19.9992 18.6723C19.8701 18.9801 19.681 19.2591 19.4429 19.493C19.2048 19.7269 18.9224 19.911 18.6124 20.0345C18.3023 20.1581 17.9707 20.2186 17.637 20.2126C16.9708 20.2126 16.3318 19.9479 15.8606 19.4768C15.3895 19.0056 15.1248 18.3666 15.1248 17.7004C15.1248 17.0341 15.3895 16.3951 15.8606 15.924C16.3318 15.4528 16.9708 15.1882 17.637 15.1882L17.6362 15.189ZM22.0325 12.2581C21.7624 12.2689 21.5069 12.3838 21.3196 12.5788C21.1323 12.7738 21.0277 13.0336 21.0277 13.304C21.0277 13.5744 21.1323 13.8343 21.3196 14.0292C21.5069 14.2242 21.7624 14.3391 22.0325 14.3499C22.3102 14.3499 22.5764 14.2396 22.7727 14.0433C22.969 13.847 23.0793 13.5808 23.0793 13.3032C23.0793 13.0256 22.969 12.7593 22.7727 12.563C22.5764 12.3667 22.3102 12.2564 22.0325 12.2564V12.2581Z" fill="#FCFCFC"/>
</svg>
