<svg width="34" height="35" viewBox="0 0 34 35" fill="none" xmlns="http://www.w3.org/2000/svg">
<rect x="0.4187" y="1.37085" width="32.6586" height="32.6586" rx="16.3293" stroke="#FCFCFC" stroke-width="0.8374"/>
<path d="M12.5098 11.8387C12.5095 12.2829 12.3329 12.7088 12.0186 13.0227C11.7044 13.3367 11.2783 13.5129 10.8341 13.5127C10.3899 13.5125 9.96403 13.3358 9.6501 13.0216C9.33617 12.7073 9.15993 12.2812 9.16016 11.837C9.16038 11.3929 9.33704 10.967 9.65129 10.653C9.96553 10.3391 10.3916 10.1629 10.8358 10.1631C11.28 10.1633 11.7059 10.34 12.0198 10.6542C12.3337 10.9685 12.51 11.3945 12.5098 11.8387ZM12.56 14.7529H9.2104V25.2371H12.56V14.7529ZM17.8524 14.7529H14.5195V25.2371H17.8189V19.7354C17.8189 16.6705 21.8133 16.3858 21.8133 19.7354V25.2371H25.121V18.5965C25.121 13.4298 19.209 13.6224 17.8189 16.1597L17.8524 14.7529Z" fill="#FCFCFC"/>
</svg>
